<?xml version="1.0" encoding="utf-8"?>
<!-- Generator: Adobe Illustrator 22.0.1, SVG Export Plug-In . SVG Version: 6.00 Build 0)  -->
<svg version="1.1" id="Layer_1" xmlns="http://www.w3.org/2000/svg" xmlns:xlink="http://www.w3.org/1999/xlink" x="0px" y="0px"
	 viewBox="0 0 396.7 51.4" style="enable-background:new 0 0 396.7 51.4;" xml:space="preserve">
<style type="text/css">
	.st0{fill:none;stroke:#FFFFFF;stroke-miterlimit:10;}
	.st1{fill:none;stroke:#FFFFFF;stroke-width:1.5;stroke-miterlimit:10;}
</style>
<polygon class="st0" points="4.3,25.5 7.6,28.8 7.6,25.5 "/>
<path class="st0" d="M122.2,24.6c-1,0-1.7,0.3-2.1,0.8c-0.4,0.5-0.6,1.5-0.6,2.9v4.6c0,1.5,0.2,2.4,0.6,3c0.4,0.5,1.1,0.8,2.1,0.8
	s1.7-0.3,2.1-0.8c0.4-0.5,0.6-1.5,0.6-2.9v-4.6c0-1.4-0.2-2.4-0.6-2.9C123.9,24.9,123.2,24.6,122.2,24.6z"/>
<path class="st0" d="M257.3,26h4.8v-0.2c0-1.6,0-2.5,0-2.5s-0.8,0-2.4,0C258.1,23.4,257.3,24.3,257.3,26z"/>
<path class="st0" d="M160.9,24.6c-1,0-1.7,0.3-2.1,0.8c-0.4,0.5-0.6,1.5-0.6,2.9v4.6c0,1.5,0.2,2.4,0.6,3c0.4,0.5,1.1,0.8,2.1,0.8
	s1.7-0.3,2.1-0.8c0.4-0.5,0.6-1.5,0.6-2.9v-4.6c0-1.4-0.2-2.4-0.6-2.9C162.6,24.9,161.9,24.6,160.9,24.6z"/>
<path class="st0" d="M48.2,35.8c0,0.4,0.2,0.8,0.6,1.1s1,0.4,1.7,0.4c2.6,0,3.9-1.4,3.9-4.3l-3.5,0.7C49,34.1,48.2,34.8,48.2,35.8z"
	/>
<path class="st1" d="M29.3,35.1h-5.4c-1.7,0-2.6-1-2.6-3v-6.6h7.5c0.4,0,0.8-0.2,1.1-0.5s0.5-0.7,0.5-1.1v-7.2
	c0-0.4-0.2-0.8-0.5-1.1c-0.3-0.3-0.7-0.5-1.1-0.5h-7.5V5.8c0-0.4-0.2-0.8-0.5-1.1c-0.3-0.3-0.7-0.5-1.1-0.5H9.2
	c-0.4,0-0.8,0.2-1.1,0.5C7.8,5,7.6,5.4,7.6,5.8v9.3H2.9c-0.4,0-0.8,0.2-1.1,0.5s-0.5,0.7-0.5,1.1v5.8l3,3h3.3v3.3l17.3,17.3h4.4
	c0.4,0,0.8-0.2,1.1-0.5c0.3-0.3,0.5-0.7,0.5-1.1v-7.8c0-0.4-0.2-0.8-0.5-1.1C30.1,35.2,29.7,35.1,29.3,35.1z"/>
<path class="st1" d="M321.6,35.1h-5.4c-1.7,0-2.6-1-2.6-3v-6.6h7.5c0.4,0,0.8-0.2,1.1-0.5c0.3-0.3,0.5-0.7,0.5-1.1v-7.2
	c0-0.4-0.2-0.8-0.5-1.1s-0.7-0.5-1.1-0.5h-7.5V5.8c0-0.4-0.2-0.8-0.5-1.1c-0.3-0.3-0.7-0.5-1.1-0.5h-10.4c-0.4,0-0.8,0.2-1.1,0.5
	C300.2,5,300,5.4,300,5.8v9.3h-4.7c-0.4,0-0.8,0.2-1.1,0.5c-0.3,0.3-0.5,0.7-0.5,1.1v5.8l3,3h3.3v3.3l17.3,17.3h4.4
	c0.4,0,0.8-0.2,1.1-0.5c0.3-0.3,0.5-0.7,0.5-1.1v-7.8c0-0.4-0.2-0.8-0.5-1.1C322.4,35.2,322.1,35.1,321.6,35.1z"/>
<path class="st1" d="M64.5,18.3c-2.7-2.2-6.7-3.3-12-3.3c-2.6,0-5,0.3-7.1,0.9c-2.1,0.6-3.8,1.4-4.9,2.4c-1.2,0.9-2.1,1.9-2.7,2.9
	s-0.9,1.9-0.9,2.7s0.4,1.3,1.3,1.3h10.1c0.6,0,1.3-0.3,2-0.9c0.7-0.6,1.4-0.9,2.2-0.9c0.7,0,1.2,0.2,1.4,0.6
	c0.2,0.4,0.3,1.2,0.3,2.3l-6.3,1c-8.7,1.4-13.1,4.7-13.1,9.9c0,2.6,1.1,4.7,3.2,6.5c2.2,1.7,5,2.6,8.6,2.6s6.3-1.2,8.2-3.5v1.8
	c0,0.5,0.2,0.9,0.5,1.2c0.3,0.3,0.7,0.5,1.1,0.5h10.4c0.4,0,0.8-0.2,1.1-0.5c0.3-0.3,0.5-0.7,0.5-1.1v-17
	C68.4,23.6,67.1,20.5,64.5,18.3z M50.4,37.3c-0.7,0-1.3-0.1-1.7-0.4c-0.4-0.3-0.6-0.7-0.6-1.1c0-1,0.9-1.7,2.6-2l3.5-0.7
	C54.3,35.9,53,37.3,50.4,37.3z"/>
<path class="st1" d="M100,35.1h-5.4c-1.7,0-2.6-1-2.6-3v-6.6h7.5c0.4,0,0.8-0.2,1.1-0.5s0.5-0.7,0.5-1.1v-7.2c0-0.4-0.2-0.8-0.5-1.1
	s-0.7-0.5-1.1-0.5H92V5.8c0-0.4-0.2-0.8-0.5-1.1c-0.3-0.3-0.7-0.5-1.1-0.5H80c-0.4,0-0.8,0.2-1.1,0.5c-0.3,0.3-0.5,0.7-0.5,1.1v9.3
	h-4.7c-0.4,0-0.8,0.2-1.1,0.5c-0.3,0.3-0.5,0.7-0.5,1.1v7.2c0,0.4,0.2,0.8,0.5,1.1s0.7,0.5,1.1,0.5h4.7v7.8c0,8.5,5,12.8,14.9,12.8
	h6.7c0.4,0,0.8-0.2,1.1-0.5s0.5-0.7,0.5-1.1v-7.8c0-0.4-0.2-0.8-0.5-1.1C100.8,35.2,100.4,35.1,100,35.1z"/>
<path class="st1" d="M134.6,18.6c-3.2-2.3-7.4-3.5-12.5-3.5s-9.2,1.2-12.5,3.5c-3.2,2.3-4.8,5.7-4.8,10.1v3.9
	c0,4.4,1.6,7.8,4.7,10.1c3.1,2.3,7.3,3.5,12.6,3.5s9.5-1.2,12.6-3.5c3.1-2.3,4.7-5.7,4.7-10.1v-3.9
	C139.5,24.3,137.9,20.9,134.6,18.6z M124.9,32.9c0,1.4-0.2,2.4-0.6,2.9c-0.4,0.5-1.1,0.8-2.1,0.8s-1.7-0.3-2.1-0.8
	c-0.4-0.5-0.6-1.5-0.6-3v-4.6c0-1.4,0.2-2.4,0.6-2.9c0.4-0.5,1.1-0.8,2.1-0.8s1.7,0.3,2.1,0.8c0.4,0.5,0.6,1.5,0.6,2.9V32.9z"/>
<path class="st1" d="M173.4,18.6c-3.2-2.3-7.4-3.5-12.5-3.5s-9.2,1.2-12.5,3.5c-3.2,2.3-4.8,5.7-4.8,10.1v3.9
	c0,4.4,1.6,7.8,4.7,10.1c3.1,2.3,7.3,3.5,12.6,3.5s9.5-1.2,12.6-3.5c3.1-2.3,4.7-5.7,4.7-10.1v-3.9
	C178.2,24.3,176.6,20.9,173.4,18.6z M163.6,32.9c0,1.4-0.2,2.4-0.6,2.9c-0.4,0.5-1.1,0.8-2.1,0.8s-1.7-0.3-2.1-0.8
	c-0.4-0.5-0.6-1.5-0.6-3v-4.6c0-1.4,0.2-2.4,0.6-2.9c0.4-0.5,1.1-0.8,2.1-0.8s1.7,0.3,2.1,0.8c0.4,0.5,0.6,1.5,0.6,2.9V32.9z"/>
<path class="st1" d="M185.2,12.4h10.1c0.4,0,0.8-0.2,1.1-0.5s0.5-0.7,0.5-1.1V3.6c0-0.4-0.2-0.8-0.5-1.1c-0.3-0.3-0.7-0.5-1.1-0.5
	h-10.1c-0.4,0-0.8,0.2-1.1,0.5s-0.5,0.7-0.5,1.1v7.2c0,0.4,0.2,0.8,0.5,1.1C184.4,12.3,184.8,12.4,185.2,12.4z"/>
<path class="st1" d="M195.6,15.1h-10.7c-0.4,0-0.8,0.2-1.1,0.5s-0.5,0.7-0.5,1.1v27.8c0,0.4,0.2,0.8,0.5,1.1
	c0.3,0.3,0.7,0.5,1.1,0.5h10.7c0.4,0,0.8-0.2,1.1-0.5s0.5-0.7,0.5-1.1V16.7c0-0.4-0.2-0.8-0.5-1.1C196.4,15.3,196,15.1,195.6,15.1z"
	/>
<path class="st1" d="M226.7,15c-2,0-3.9,0.3-5.7,1s-3.2,1.6-4.2,2.6v-2c0-0.4-0.2-0.8-0.5-1.1s-0.7-0.5-1.1-0.5h-10.4
	c-0.4,0-0.8,0.2-1.1,0.5s-0.5,0.7-0.5,1.1v27.8c0,0.4,0.2,0.8,0.5,1.1c0.3,0.3,0.7,0.5,1.1,0.5h11.3c0.4,0,0.8-0.2,1.1-0.5
	s0.5-0.7,0.5-1.1v-16c0-2.2,1-3.3,3-3.3c2,0,3,1.1,3,3.3v16c0,0.4,0.2,0.8,0.5,1.1c0.3,0.3,0.7,0.5,1.1,0.5h11.4
	c0.4,0,0.8-0.2,1.1-0.5c0.3-0.3,0.5-0.7,0.5-1.1v-16c0-4.4-1.1-7.7-3.3-9.9C232.7,16.2,230,15,226.7,15z"/>
<path class="st1" d="M264.8,15.5c-1.4-0.3-2.9-0.5-4.6-0.5c-5.2,0-9.5,1.3-12.7,3.9c-3.2,2.6-4.8,6-4.8,10.2v2.8
	c0,4.4,1.6,7.9,4.7,10.4c3.2,2.5,7.2,3.8,12.2,3.8s8.9-1.1,11.9-3.2c2.9-2.1,4.4-4.1,4.4-6.1c0-0.9-0.4-1.3-1.3-1.3h-11.3
	c-0.8,0-1.5,0.3-2.1,1c-0.6,0.6-1.2,1-1.6,1c-1.6,0-2.3-1.2-2.3-3.6v-0.3h17.8c0.4,0,0.8-0.1,1.1-0.5c0.3-0.3,0.5-0.7,0.5-1.1v-1.7
	c0-1.1-0.1-2.2-0.3-3.3L264.8,15.5z M262.1,25.9v0.2h-4.8c0-1.7,0.8-2.6,2.4-2.6s2.4,0,2.4,0S262.1,24.2,262.1,25.9z"/>
<path class="st1" d="M352.8,20.2h-21c-0.4,0-0.8,0.2-1.1,0.5c-0.3,0.3-0.5,0.7-0.5,1.1v8.5c0,0.4,0.2,0.8,0.5,1.1s0.7,0.5,1.1,0.5
	h21c0.4,0,0.8-0.2,1.1-0.5c0.3-0.3,0.5-0.7,0.5-1.1v-8.5c0-0.4-0.2-0.8-0.5-1.1C353.6,20.3,353.2,20.2,352.8,20.2z"/>
<path class="st1" d="M379.8,26.9c-3.8-0.5-6-1.1-6.5-1.6c-0.2-0.2-0.3-0.5-0.3-0.9c0-0.6,0.5-0.9,1.4-0.9c0.4,0,1.1,0.3,2,1
	c0.9,0.6,1.6,1,2.2,1h8.9l-10.1-10.1c-1-0.1-2.1-0.2-3.2-0.2c-4.6,0-8.2,1-10.9,2.9c-2.7,1.9-4.1,4.2-4.1,6.9s1,4.8,3.1,6.3
	c2,1.5,4.7,2.5,8,3.1s5.2,1.2,5.7,1.8c0.2,0.2,0.3,0.5,0.3,0.9c0,0.6-0.4,0.9-1.2,0.9c-0.8,0-1.6-0.3-2.5-0.8
	c-0.9-0.6-1.6-0.8-2.2-0.8H360c-0.4,0-0.7,0.2-1,0.5s-0.4,0.7-0.4,1.1c0,1.6,1.1,3.3,3.4,5.2c1.2,0.9,2.8,1.7,5,2.3
	c2.2,0.6,4.7,0.9,7.5,0.9c5.3,0,9.4-0.9,12.3-2.6s4.4-4.1,4.4-7.2c0-2.2-0.9-4.2-2.8-6C386.5,28.6,383.6,27.4,379.8,26.9z"/>
</svg>
